<?xml version="1.0" encoding="UTF-8" standalone="no"?>
<svg
   xmlns:dc="http://purl.org/dc/elements/1.1/"
   xmlns:cc="http://creativecommons.org/ns#"
   xmlns:rdf="http://www.w3.org/1999/02/22-rdf-syntax-ns#"
   xmlns:svg="http://www.w3.org/2000/svg"
   xmlns="http://www.w3.org/2000/svg"
   xmlns:sodipodi="http://sodipodi.sourceforge.net/DTD/sodipodi-0.dtd"
   xmlns:inkscape="http://www.inkscape.org/namespaces/inkscape"
   viewBox="0 0 512 512"
   version="1.1"
   id="svg860"
   sodipodi:docname="trash.svg"
   inkscape:version="0.92.4 (5da689c313, 2019-01-14)">
  <metadata
     id="metadata866">
    <rdf:RDF>
      <cc:Work
         rdf:about="">
        <dc:format>image/svg+xml</dc:format>
        <dc:type
           rdf:resource="http://purl.org/dc/dcmitype/StillImage" />
      </cc:Work>
    </rdf:RDF>
  </metadata>
  <defs
     id="defs864" />
  <sodipodi:namedview
     pagecolor="#ffffff"
     bordercolor="#666666"
     borderopacity="1"
     objecttolerance="10"
     gridtolerance="10"
     guidetolerance="10"
     inkscape:pageopacity="0"
     inkscape:pageshadow="2"
     inkscape:window-width="858"
     inkscape:window-height="480"
     id="namedview862"
     showgrid="false"
     inkscape:zoom="0.4609375"
     inkscape:cx="256"
     inkscape:cy="256"
     inkscape:window-x="0"
     inkscape:window-y="0"
     inkscape:window-maximized="0"
     inkscape:current-layer="svg860" />
  <title
     id="title845" />
  <g
     data-name="1"
     id="_1"
     style="fill:#ffffff">
    <path
       d="M356.65,450H171.47a41,41,0,0,1-40.9-40.9V120.66a15,15,0,0,1,15-15h237a15,15,0,0,1,15,15V409.1A41,41,0,0,1,356.65,450ZM160.57,135.66V409.1a10.91,10.91,0,0,0,10.9,10.9H356.65a10.91,10.91,0,0,0,10.91-10.9V135.66Z"
       id="path847"
       style="fill:#ffffff" />
    <path
       d="M327.06,135.66h-126a15,15,0,0,1-15-15V93.4A44.79,44.79,0,0,1,230.8,48.67h66.52A44.79,44.79,0,0,1,342.06,93.4v27.26A15,15,0,0,1,327.06,135.66Zm-111-30h96V93.4a14.75,14.75,0,0,0-14.74-14.73H230.8A14.75,14.75,0,0,0,216.07,93.4Z"
       id="path849"
       style="fill:#ffffff" />
    <path
       d="M264.06,392.58a15,15,0,0,1-15-15V178.09a15,15,0,1,1,30,0V377.58A15,15,0,0,1,264.06,392.58Z"
       id="path851"
       style="fill:#ffffff" />
    <path
       d="M209.9,392.58a15,15,0,0,1-15-15V178.09a15,15,0,0,1,30,0V377.58A15,15,0,0,1,209.9,392.58Z"
       id="path853"
       style="fill:#ffffff" />
    <path
       d="M318.23,392.58a15,15,0,0,1-15-15V178.09a15,15,0,0,1,30,0V377.58A15,15,0,0,1,318.23,392.58Z"
       id="path855"
       style="fill:#ffffff" />
    <path
       d="M405.81,135.66H122.32a15,15,0,0,1,0-30H405.81a15,15,0,0,1,0,30Z"
       id="path857"
       style="fill:#ffffff" />
  </g>
</svg>
