<?xml version="1.0" encoding="UTF-8" standalone="no"?>
<svg
   xmlns:dc="http://purl.org/dc/elements/1.1/"
   xmlns:cc="http://creativecommons.org/ns#"
   xmlns:rdf="http://www.w3.org/1999/02/22-rdf-syntax-ns#"
   xmlns:svg="http://www.w3.org/2000/svg"
   xmlns="http://www.w3.org/2000/svg"
   xmlns:sodipodi="http://sodipodi.sourceforge.net/DTD/sodipodi-0.dtd"
   xmlns:inkscape="http://www.inkscape.org/namespaces/inkscape"
   enable-background="new 0 0 30.59 24.352"
   height="24.352px"
   id="Capa_1"
   version="1.1"
   viewBox="0 0 30.59 24.352"
   width="30.59px"
   xml:space="preserve"
   sodipodi:docname="checked.svg"
   inkscape:version="0.92.4 (5da689c313, 2019-01-14)"><metadata
     id="metadata831"><rdf:RDF><cc:Work
         rdf:about=""><dc:format>image/svg+xml</dc:format><dc:type
           rdf:resource="http://purl.org/dc/dcmitype/StillImage" /></cc:Work></rdf:RDF></metadata><defs
     id="defs829" /><sodipodi:namedview
     pagecolor="#ffffff"
     bordercolor="#666666"
     borderopacity="1"
     objecttolerance="10"
     gridtolerance="10"
     guidetolerance="10"
     inkscape:pageopacity="0"
     inkscape:pageshadow="2"
     inkscape:window-width="1920"
     inkscape:window-height="1017"
     id="namedview827"
     showgrid="false"
     inkscape:zoom="23.752191"
     inkscape:cx="5.7938795"
     inkscape:cy="12.112705"
     inkscape:window-x="-8"
     inkscape:window-y="-8"
     inkscape:window-maximized="1"
     inkscape:current-layer="Capa_1" /><path
     style="opacity:1;fill:#ffffff;fill-opacity:1;stroke:#000000;stroke-width:0.02977017;stroke-opacity:1"
     d="M 10.661672,22.495309 C 10.33448,22.435702 10.022313,22.300155 9.7309553,22.091179 9.5116601,21.93389 2.3465789,14.762381 2.2219878,14.575475 1.7094613,13.806608 1.6989932,12.856094 2.1948485,12.111217 c 0.079197,-0.11897 0.3727709,-0.43676 0.7236968,-0.783392 0.5622192,-0.555339 0.6039639,-0.589848 0.873261,-0.721895 0.3819978,-0.187308 0.5963456,-0.238624 0.9973007,-0.238763 0.4714088,-1.49e-4 0.8387897,0.11162 1.2354621,0.375914 0.073681,0.04909 1.2291564,1.182559 2.5677227,2.518815 l 2.4337572,2.429558 6.6908,-6.6867506 c 3.67994,-3.6777125 6.754513,-6.7293899 6.832383,-6.781505 0.870641,-0.5826793 1.940421,-0.510615 2.732302,0.1840577 0.432403,0.3793231 1.025662,1.0130136 1.159868,1.2389165 0.429998,0.7237945 0.4288,1.5457862 -0.0033,2.2893679 -0.07585,0.1305077 -1.946797,2.0202059 -8.003848,8.0840465 -4.347675,4.35255 -7.978545,7.97113 -8.0686,8.041291 -0.20163,0.157088 -0.455173,0.286818 -0.729369,0.373194 -0.232841,0.07335 -0.734919,0.104897 -0.974574,0.06124 z"
     id="path833"
     inkscape:connector-curvature="0" /></svg>